<?xml version="1.0" encoding="utf-8"?>
<!-- Generator: Adobe Illustrator 16.0.4, SVG Export Plug-In . SVG Version: 6.00 Build 0)  -->
<!DOCTYPE svg PUBLIC "-//W3C//DTD SVG 1.0//EN" "http://www.w3.org/TR/2001/REC-SVG-20010904/DTD/svg10.dtd">
<svg version="1.0" id="Capa_1" xmlns="http://www.w3.org/2000/svg" xmlns:xlink="http://www.w3.org/1999/xlink" x="0px" y="0px"
	 width="242px" height="132px" viewBox="0 0 242 132" enable-background="new 0 0 242 132" xml:space="preserve">
<polygon fill="#FFFFFF" stroke="#FFFFFF" stroke-width="4" stroke-miterlimit="10" points="183.075,50.265 183.075,42.007 
	170.992,42.007 159.864,42.007 159.864,50.265 159.864,59.792 159.864,68.049 159.864,82.523 170.992,82.523 170.992,68.049 
	183.075,68.049 183.075,59.792 170.992,59.792 170.992,50.265 "/>
<g>
	<path fill="#FFFFFF" stroke="#FFFFFF" stroke-width="4" stroke-miterlimit="10" d="M224.812,82.523h-11.994l-3.106-9.172h-12.226
		l-3.25,9.172h-9.089l15.839-40.517h9.216L224.812,82.523z M200.062,65.558h7.523l-3.814-11.038L200.062,65.558z"/>
</g>
<path fill="#FFFFFF" stroke="#FFFFFF" stroke-width="4" stroke-miterlimit="10" d="M150.839,64.015
	c-1.651-1.708-3.799-2.791-6.448-3.25c3.701-1.891,5.651-4.657,5.551-8.29c-0.277-10-8.32-10.451-14.871-10.467
	c-0.004,0-0.008-0.001-0.014-0.001h-0.219c-0.227,0-0.452,0-0.675,0h-7.308h-5.803v40.517h5.803h8.967h0.271
	c0.157,0,0.302-0.006,0.455-0.01c4.094-0.049,7.211-0.506,9.326-1.381c2.239-0.926,4.04-2.281,5.398-4.062
	c1.469-1.908,2.203-4.031,2.203-6.361C153.477,68.062,152.598,65.833,150.839,64.015z M136.259,49.362
	c0.099,0,0.191,0.005,0.289,0.007c2.169,0.072,3.257,1.445,3.257,4.124c0,2.771-1.087,4.234-3.256,4.393
	c-0.21,0.009-0.423,0.015-0.644,0.015h-3.23v-8.538H136.259z M132.675,75.17V64.787h3.122c0.26,0,0.505,0.005,0.752,0.01
	c1.446,0.049,2.518,0.329,3.204,0.844c1.123,0.845,1.685,2.441,1.685,4.792c0,2.002-0.692,3.359-2.076,4.074
	c-0.796,0.414-1.737,0.625-2.813,0.652c-0.117,0.002-0.226,0.01-0.345,0.01H132.675z"/>
<g>
	
		<ellipse transform="matrix(0.8357 -0.5493 0.5493 0.8357 -17.5253 41.1939)" fill="#FFFFFF" stroke="#FFFFFF" stroke-width="4" stroke-miterlimit="10" cx="60.074" cy="49.883" rx="54.336" ry="39.535"/>
	
		<ellipse transform="matrix(0.8357 -0.5492 0.5492 0.8357 -17.5272 41.1912)" fill="#FFFFFF" stroke="#FFFFFF" stroke-width="4" stroke-miterlimit="10" cx="60.07" cy="49.885" rx="49.983" ry="35.582"/>
	<path fill="#FFFFFF" stroke="#FFFFFF" stroke-width="4" stroke-miterlimit="10" d="M77.9,14.573
		c-12.668-3.597-30.461,1.449-26.929-0.086c6.366-2.769,12.823-4.398,18.972-4.903C72.831,11.466,74.795,11.793,77.9,14.573z"/>
	<path fill="#FFFFFF" stroke="#FFFFFF" stroke-width="4" stroke-miterlimit="10" d="M101.838,22.432
		c0.194,0.294,0.71,0.577,0.562,0.894c-3.24,6.946-5.857,7.602-15.833,15.451c7.436-11.635,2.799-17.607-2.722-21.511
		c-3.001-3.837-3.819-4.164-9.051-7.845C86.31,9.605,96.282,13.978,101.838,22.432z"/>
	<path fill="#FFFFFF" stroke="#FFFFFF" stroke-width="4" stroke-miterlimit="10" d="M84.115,43.029
		c8.663-4.552,14.882-9.158,19.521-17.383c3.653,7.791,3.291,17.157-0.415,26.365c-16.039,8.354-32.708,9.824-41.837,10.806
		C73.742,54.694,76.102,52.841,84.115,43.029z"/>
	<path fill="#FFFFFF" stroke="#FFFFFF" stroke-width="4" stroke-miterlimit="10" d="M57.131,65.433
		c29.927-1.635,42.029-9.485,44.099-9.102c-4.49,8.639-11.887,16.891-21.618,23.288c-7.869,5.172-16.248,8.463-24.303,9.898
		c-0.403,4.125,1.919,6.66,2.277,8.787c-7.324,2.615-7.815,3.76-17.791,5.559c4.415-3.105,7.696-9.49,6.705-16.354
		C43.721,80.969,43.721,72.139,57.131,65.433z"/>
	<path fill="#FFFFFF" stroke="#FFFFFF" stroke-width="4" stroke-miterlimit="10" d="M43.394,70.828c0,0-22.786-2.691-16.026-23.057
		c3.134-9.443,8.177-17.99,27.311-28.946c0,0,32.543-5.887,31.071,10.629c0,0-28.619-0.981-50.696,10.957
		c0,0-18.152,25.676,11.284,26.819C46.338,67.23,44.211,69.686,43.394,70.828z"/>
	<path fill="#FFFFFF" stroke="#FFFFFF" stroke-width="4" stroke-miterlimit="10" d="M61.383,42.866c0,0-21.389,2.462-31.463,15.703
		c0,0,0.595,3.378,3.374,5.017C33.293,63.585,43.892,47.973,61.383,42.866z"/>
</g>
<g>
	<path fill="#FFFFFF" stroke="#FFFFFF" stroke-width="4" stroke-miterlimit="10" d="M101.442,103.713
		c-0.785-0.611-1.9-0.914-3.348-0.914h-2.699c-0.609,0-1.052-0.086-1.331-0.258c-0.278-0.17-0.418-0.438-0.418-0.799
		c0-0.354,0.082-0.625,0.244-0.814c0.078-0.086,0.176-0.164,0.296-0.236c0.12-0.07,0.295-0.129,0.527-0.172
		c0.231-0.041,0.458-0.059,0.681-0.049l0.745,0.027c1.543,0,2.794-0.414,3.753-1.25c0.959-0.832,1.439-1.92,1.439-3.264
		c0-1.295-0.454-2.348-1.362-3.158l-0.039-0.027l1.812,0.17l0.643,0.059c-0.035-0.305-0.051-0.57-0.051-0.801
		c0-0.219,0.017-0.477,0.051-0.771c-0.128,0.047-0.39,0.092-0.785,0.137c-0.394,0.041-0.818,0.074-1.272,0.092l-1.542,0.057
		c-0.18,0.01-0.433,0.006-0.758-0.014c-0.326-0.018-0.635-0.047-0.926-0.084c-0.223-0.031-0.459-0.039-0.707-0.031
		c-1.542,0-2.791,0.42-3.747,1.258c-0.955,0.838-1.433,1.936-1.433,3.285c0,1.297,0.454,2.344,1.363,3.145
		c0.377,0.342,0.814,0.609,1.311,0.801c-0.599,0.227-1.068,0.559-1.407,0.992c-0.338,0.434-0.507,0.916-0.507,1.449
		c0,0.773,0.343,1.324,1.028,1.658c0.282,0.143,0.642,0.254,1.079,0.328c-0.59,0.191-1.13,0.459-1.619,0.801
		c-1.062,0.752-1.594,1.672-1.594,2.756c0,1.049,0.495,1.932,1.485,2.652c0.99,0.717,2.204,1.078,3.644,1.078
		c1.851,0,3.417-0.531,4.697-1.594s1.922-2.365,1.922-3.908C102.619,105.188,102.227,104.322,101.442,103.713z M93.609,96.213
		c0-1.068,0.242-1.922,0.726-2.564c0.484-0.643,1.129-0.965,1.935-0.965c0.805,0,1.452,0.295,1.94,0.887
		c0.489,0.6,0.733,1.383,0.733,2.357c0,1.057-0.242,1.906-0.726,2.543c-0.484,0.637-1.134,0.955-1.947,0.955
		c-0.849,0-1.504-0.277-1.967-0.834C93.84,98.033,93.609,97.242,93.609,96.213z M99.489,109.756
		c-0.828,0.658-1.836,0.986-3.027,0.986c-1.208,0-2.14-0.262-2.795-0.785c-0.655-0.525-0.983-1.266-0.983-2.23
		c0-0.922,0.33-1.656,0.99-2.199c0.66-0.541,1.551-0.812,2.673-0.812h0.116c1.397,0,2.457,0.223,3.181,0.67
		c0.725,0.447,1.086,1.1,1.086,1.957C100.729,108.295,100.315,109.098,99.489,109.756z"/>
	<path fill="#FFFFFF" stroke="#FFFFFF" stroke-width="4" stroke-miterlimit="10" d="M109.751,91.865
		c-1.081,0.203-2.178,0.709-3.292,1.521v-1.533l-0.121-0.092c-0.946,0.26-1.931,0.504-2.958,0.73
		c-0.287,0.062,0.781,0.732,0.781,0.732c0.032,0.701,0.059,2.133,0.059,3.555v4.465c0,0.701-0.004,1.236-0.012,1.611
		c-0.008,0.201-0.108,0.338-0.3,0.406l-1.396,0.447l0.048,0.535c1.074-0.025,2.007-0.039,2.798-0.039
		c0.79,0,1.811,0.014,3.062,0.039l-0.036-0.535l-1.601-0.5c-0.192-0.061-0.293-0.209-0.301-0.443
		c-0.016-0.586-0.024-1.561-0.024-2.922v-5.672c0.65-0.436,1.191-0.656,1.625-0.656c0.449,0,0.778,0.227,0.987,0.676
		c0.076,0.166,0.154,0.352,0.233,0.557c0.486,0.123,0.706,0.01,1.038-0.021c0,0,0-0.857-0.072-2.936
		C110.099,91.807,109.926,91.832,109.751,91.865z"/>
	<path fill="#FFFFFF" stroke="#FFFFFF" stroke-width="4" stroke-miterlimit="10" d="M188.001,91.506
		c-1.798,0-3.234,0.613-4.309,1.848c-1.074,1.229-1.611,2.814-1.611,4.752c0,1.949,0.576,3.471,1.728,4.566
		c1.151,1.098,2.662,1.645,4.532,1.645c0.654,0,1.363-0.102,2.128-0.303c0.766-0.201,1.509-0.533,2.23-0.996l-0.076-0.562
		c-0.926,0.158-1.796,0.238-2.612,0.238c-1.826,0-3.171-0.406-4.028-1.213c-0.858-0.809-1.288-2.15-1.288-4.027h8.044
		c0.025-0.254,0.038-0.504,0.038-0.748c0-1.625-0.418-2.896-1.259-3.818C190.68,91.965,189.506,91.506,188.001,91.506z
		 M190.163,96.365h-5.419c0.068-1.064,0.363-1.975,0.887-2.725c0.524-0.75,1.283-1.125,2.272-1.125c0.749,0,1.312,0.266,1.69,0.797
		c0.381,0.533,0.569,1.422,0.569,2.66V96.365z"/>
	<path fill="#FFFFFF" stroke="#FFFFFF" stroke-width="4" stroke-miterlimit="10" d="M181.416,103.031
		c-0.233-0.051-0.41-0.148-0.528-0.295c-0.12-0.143-0.194-0.35-0.224-0.621s-0.044-0.629-0.044-1.074
		c-0.01-1.178-0.014-2.371-0.014-3.576V90.34c0-2.148,0.026-4.156,0.077-6.025l-0.115-0.105c-1.264,0.324-2.652,0.635-4.169,0.932
		l0.064,0.434l1.722,0.521c0.034,1.824,0.05,3.703,0.05,5.633c-0.672-0.123-1.279-0.184-1.822-0.184
		c-2.244,0-3.99,0.594-5.239,1.781s-1.875,2.863-1.875,5.029c0,1.678,0.472,3.09,1.412,4.238c0.938,1.146,2.196,1.723,3.771,1.723
		c1.241,0,2.522-0.504,3.841-1.508c0.298,0.996,0.877,1.492,1.735,1.492c0.188,0,0.543-0.074,1.065-0.223
		c0.521-0.146,0.971-0.295,1.345-0.443l-0.064-0.512C181.979,103.115,181.65,103.084,181.416,103.031z M178.235,102.062
		c-0.856,0.453-1.68,0.68-2.468,0.68c-1.228,0-2.175-0.445-2.847-1.342c-0.671-0.895-1.007-2.09-1.007-3.582
		c0-1.73,0.378-3.018,1.132-3.869c0.756-0.854,1.856-1.277,3.301-1.277c0.698,0,1.326,0.09,1.889,0.275V102.062z"/>
	<path fill="#FFFFFF" stroke="#FFFFFF" stroke-width="4" stroke-miterlimit="10" d="M116.633,91.803
		c-1.872,0-3.376,0.607-4.511,1.826c-1.136,1.217-1.704,2.787-1.704,4.709c0,1.867,0.543,3.381,1.627,4.537s2.507,1.736,4.269,1.736
		c1.804,0,3.29-0.613,4.459-1.84c1.17-1.229,1.756-2.836,1.756-4.828c0-1.852-0.542-3.336-1.622-4.459
		C119.827,92.361,118.402,91.803,116.633,91.803z M119.058,102.234c-0.571,0.902-1.403,1.355-2.496,1.355
		c-1.168,0-2.049-0.514-2.642-1.539c-0.592-1.025-0.888-2.355-0.888-3.988c0-1.756,0.29-3.066,0.87-3.932
		c0.58-0.861,1.411-1.295,2.495-1.295c1.144,0,2.016,0.48,2.617,1.441c0.601,0.961,0.902,2.273,0.902,3.941
		C119.915,99.992,119.629,101.33,119.058,102.234z"/>
	<path fill="#FFFFFF" stroke="#FFFFFF" stroke-width="4" stroke-miterlimit="10" d="M156.478,102.842
		c-0.118-0.172-0.184-0.619-0.326-1.104l-4.292-12.881h-3.312l0.648,3.148l-3.399,9.895c-0.128,0.371-0.243,0.646-0.347,0.822
		c-0.104,0.178-0.266,0.307-0.485,0.393l-0.875,0.326l0.043,0.455c0.643-0.021,1.222-0.033,1.743-0.033
		c0.519,0,1.188,0.012,2.009,0.033l-0.017-0.477l-0.806-0.285c-0.11-0.043-0.193-0.094-0.247-0.152
		c-0.055-0.061-0.083-0.148-0.083-0.27c0-0.135,0.034-0.316,0.104-0.549c0.068-0.232,0.164-0.545,0.286-0.939l0.909-2.82h4.176
		l0.815,2.83c0.109,0.381,0.193,0.686,0.254,0.912c0.062,0.23,0.092,0.416,0.092,0.557c0,0.127-0.024,0.219-0.074,0.279
		c-0.049,0.059-0.131,0.113-0.246,0.162l-0.823,0.297l0.034,0.455c0.896-0.021,1.673-0.033,2.331-0.033
		c0.646,0,2.275,0.012,3.031,0.033v-0.441l-0.621-0.109C156.78,103.262,156.597,103.014,156.478,102.842z M148.354,97.443
		l1.878-5.818l1.69,5.818H148.354z"/>
	<path fill="#FFFFFF" stroke="#FFFFFF" stroke-width="4" stroke-miterlimit="10" d="M89.411,102.842
		c-0.119-0.172-0.183-0.619-0.328-1.104l-4.292-12.881H81.48l0.649,3.148l-3.4,9.895c-0.128,0.371-0.243,0.646-0.347,0.822
		c-0.104,0.178-0.266,0.307-0.485,0.393l-0.876,0.326l0.044,0.455c0.641-0.021,1.221-0.033,1.742-0.033
		c0.52,0,1.189,0.012,2.01,0.033l-0.017-0.477l-0.806-0.285c-0.109-0.043-0.192-0.094-0.247-0.152
		c-0.055-0.061-0.083-0.148-0.083-0.27c0-0.135,0.035-0.316,0.104-0.549c0.07-0.232,0.165-0.545,0.286-0.939l0.909-2.82h4.177
		l0.815,2.83c0.109,0.381,0.194,0.686,0.254,0.912c0.061,0.23,0.091,0.416,0.091,0.557c0,0.127-0.024,0.219-0.074,0.279
		c-0.049,0.059-0.131,0.113-0.247,0.162l-0.823,0.297l0.035,0.455c0.895-0.021,1.672-0.033,2.331-0.033
		c0.646,0,2.275,0.012,3.032,0.033v-0.441l-0.623-0.109C89.713,103.262,89.529,103.014,89.411,102.842z M81.286,97.443l1.88-5.818
		l1.689,5.818H81.286z"/>
	<path fill="#FFFFFF" stroke="#FFFFFF" stroke-width="4" stroke-miterlimit="10" d="M138.931,97.518
		c-0.305-0.316-3.33-2.854-3.6-3.115c-0.269-0.258-0.592-0.572-0.827-0.871c-0.459-0.582-0.736-1.656,0.077-2.805
		c0.37-0.521,1.062-0.676,1.823-0.676c0.509,0,1.065,0.125,1.674,0.369l0.447,0.471l0.455,1.199l0.517-2.406l-0.061-0.076
		c-0.999-0.262-1.955-0.393-2.868-0.393c-1.293,0-2.378,0.352-3.252,1.047c-0.875,0.697-1.313,1.684-1.313,2.957
		c0,0.635,0.092,1.189,0.277,1.664c0.185,0.477,0.432,0.877,0.742,1.203c0.308,0.328,0.653,0.615,1.034,0.861
		s2.545,2.195,2.808,2.439c0.263,0.246,1.687,1.475,0.445,3.57c-0.34,0.576-1.153,0.697-2.015,0.697
		c-0.641,0-2.109-0.158-2.723-0.77l-1.196-2.607v3.312l0.619,0.285l0.052,0.086c1.114,0.379,2.131,0.568,3.049,0.568
		c1.427,0,2.59-0.369,3.487-1.109c0.898-0.738,1.347-1.809,1.347-3.209c0-0.592-0.089-1.109-0.271-1.553
		C139.477,98.215,139.233,97.836,138.931,97.518z"/>
	<path fill="#FFFFFF" stroke="#FFFFFF" stroke-width="4" stroke-miterlimit="10" d="M227.251,90.225
		c0.104-0.164,0.257-0.283,0.458-0.354l0.877-0.338l-0.034-0.455c-0.59,0.029-1.205,0.043-1.848,0.043
		c-0.641,0-1.276-0.014-1.905-0.043l0.017,0.488l0.807,0.264c0.108,0.033,0.191,0.082,0.247,0.143
		c0.055,0.059,0.081,0.152,0.081,0.279c0,0.141-0.034,0.33-0.104,0.564c-0.069,0.236-0.164,0.547-0.285,0.934l-3.041,9.494
		l-2.8-9.504c-0.107-0.373-0.194-0.678-0.254-0.912c-0.062-0.236-0.092-0.426-0.092-0.566c0-0.127,0.026-0.223,0.079-0.289
		c0.051-0.068,0.135-0.119,0.251-0.152l0.815-0.287l-0.037-0.455c-0.831,0.029-1.638,0.043-2.417,0.043
		c-0.768,0-1.438-0.014-2.01-0.043l0.018,0.455l0.788,0.297c0.236,0.084,0.415,0.219,0.533,0.406
		c0.118,0.186,0.246,0.512,0.385,0.977l3.865,12.734l0.866-0.084l4.322-12.65C227.009,90.721,227.147,90.391,227.251,90.225z"/>
	<path fill="#FFFFFF" stroke="#FFFFFF" stroke-width="4" stroke-miterlimit="10" d="M209.328,102.977
		c-1.764,0-3.144-0.611-4.142-1.838c-0.995-1.223-1.495-2.865-1.495-4.922c0-1.92,0.438-3.482,1.31-4.688
		c0.871-1.203,2.072-1.807,3.598-1.807c0.63,0,1.331,0.111,2.103,0.328l0.684,2.777l0.374-0.062l0.58-3.41l-0.065-0.086
		c-1.103-0.289-2.182-0.434-3.235-0.434c-2.193,0-3.975,0.703-5.341,2.111c-1.368,1.408-2.053,3.32-2.053,5.734
		c0,2.268,0.623,4.096,1.865,5.482s2.872,2.08,4.884,2.08c1.552,0,2.942-0.479,4.169-1.436l-0.103-0.477
		C211.364,102.764,210.32,102.977,209.328,102.977z"/>
	
		<ellipse fill="#FFFFFF" stroke="#FFFFFF" stroke-width="4" stroke-miterlimit="10" cx="142.373" cy="102.808" rx="1.349" ry="1.437"/>
	<path fill="#FFFFFF" stroke="#FFFFFF" stroke-width="4" stroke-miterlimit="10" d="M214.706,101.371
		c-0.744,0-1.348,0.643-1.348,1.436c0,0.795,0.604,1.438,1.348,1.438c0.747,0,1.351-0.643,1.351-1.438
		C216.057,102.014,215.453,101.371,214.706,101.371z"/>
	
		<ellipse fill="#FFFFFF" stroke="#FFFFFF" stroke-width="4" stroke-miterlimit="10" cx="227.236" cy="102.808" rx="1.351" ry="1.437"/>
	
		<ellipse fill="#FFFFFF" stroke="#FFFFFF" stroke-width="4" stroke-miterlimit="10" cx="159.463" cy="102.46" rx="1.35" ry="1.437"/>
</g>
<path fill="#FFFFFF" d="M235.667,123.799c0,2.853-2.292,5.166-5.118,5.166H23.453c-2.828,0-5.12-2.313-5.12-5.166l0,0
	c0-2.854,2.292-5.167,5.12-5.167h207.096C233.375,118.632,235.667,120.945,235.667,123.799L235.667,123.799z"/>
<g>
	<polygon fill="#22315F" points="183.075,50.265 183.075,42.007 170.992,42.007 159.864,42.007 159.864,50.265 159.864,59.792 
		159.864,68.049 159.864,82.523 170.992,82.523 170.992,68.049 183.075,68.049 183.075,59.792 170.992,59.792 170.992,50.265 	"/>
	<g>
		<path fill="#22315F" d="M224.812,82.523h-11.994l-3.106-9.172h-12.226l-3.25,9.172h-9.089l15.839-40.517h9.216L224.812,82.523z
			 M200.062,65.558h7.523l-3.814-11.038L200.062,65.558z"/>
	</g>
	<path fill="#22315F" d="M150.839,64.015c-1.651-1.708-3.799-2.791-6.448-3.25c3.701-1.891,5.651-4.657,5.551-8.29
		c-0.277-10-8.32-10.451-14.871-10.467c-0.004,0-0.008-0.001-0.014-0.001h-0.219c-0.227,0-0.452,0-0.675,0h-7.308h-5.803v40.517
		h5.803h8.967h0.271c0.157,0,0.302-0.006,0.455-0.01c4.094-0.049,7.211-0.506,9.326-1.381c2.239-0.926,4.04-2.281,5.398-4.062
		c1.469-1.908,2.203-4.031,2.203-6.361C153.477,68.062,152.598,65.833,150.839,64.015z M136.259,49.362
		c0.099,0,0.191,0.005,0.289,0.007c2.169,0.072,3.257,1.445,3.257,4.124c0,2.771-1.087,4.234-3.256,4.393
		c-0.21,0.009-0.423,0.015-0.644,0.015h-3.23v-8.538H136.259z M132.675,75.17V64.787h3.122c0.26,0,0.505,0.005,0.752,0.01
		c1.446,0.049,2.518,0.329,3.204,0.844c1.123,0.845,1.685,2.441,1.685,4.792c0,2.002-0.692,3.359-2.076,4.074
		c-0.796,0.414-1.737,0.625-2.813,0.652c-0.117,0.002-0.226,0.01-0.345,0.01H132.675z"/>
	<g>
		<path fill="#1D1D1B" d="M24.976,124.805h-1.875l-0.375,0.404l-0.428,0.451c-0.083,0.098-0.145,0.184-0.183,0.262
			c-0.03,0.061-0.045,0.121-0.045,0.182c0,0.062,0.038,0.121,0.114,0.174c0.076,0.053,0.202,0.084,0.377,0.092v0.145h-1.807
			l0.045-0.145c0.161-0.023,0.303-0.072,0.428-0.15c0.167-0.104,0.406-0.318,0.718-0.645l4.287-4.49h0.201l-0.201,4.346
			c-0.009,0.227-0.013,0.363-0.013,0.41c0,0.18,0.041,0.307,0.123,0.389c0.082,0.08,0.218,0.129,0.408,0.141l-0.044,0.145h-2.619
			l0.049-0.145c0.259-0.021,0.408-0.039,0.446-0.055c0.083-0.037,0.159-0.113,0.228-0.229c0.068-0.117,0.11-0.318,0.125-0.604
			L24.976,124.805z M24.976,124.482l0.115-1.73l-1.681,1.73H24.976z"/>
		<path fill="#1D1D1B" d="M34.193,121.084l-0.419,1.703h-0.169c-0.024-0.496-0.152-0.854-0.382-1.07
			c-0.23-0.219-0.554-0.328-0.97-0.328c-0.428,0-0.856,0.133-1.284,0.398c-0.428,0.266-0.794,0.674-1.095,1.225
			c-0.302,0.553-0.453,1.133-0.453,1.74c0,0.521,0.134,0.922,0.402,1.197c0.268,0.275,0.581,0.412,0.94,0.412
			c0.152,0,0.337-0.037,0.553-0.113l0.464-1.402c0.077-0.234,0.116-0.389,0.116-0.463c0-0.096-0.047-0.176-0.141-0.242
			c-0.094-0.066-0.254-0.1-0.483-0.1l0.044-0.15h2.61l-0.04,0.15c-0.155,0.008-0.276,0.033-0.364,0.076
			c-0.088,0.041-0.157,0.105-0.208,0.188c-0.03,0.051-0.076,0.18-0.139,0.385l-0.548,1.633c-0.625,0.209-1.282,0.314-1.972,0.314
			c-0.532,0-0.985-0.086-1.358-0.256c-0.374-0.17-0.682-0.438-0.928-0.807S28,124.789,28,124.316c0-1.002,0.507-1.828,1.521-2.477
			c0.794-0.504,1.695-0.756,2.703-0.756c0.176,0,0.338,0.008,0.486,0.023c0.11,0.014,0.304,0.049,0.58,0.107
			c0.179,0.041,0.301,0.061,0.366,0.061c0.131,0,0.255-0.064,0.371-0.191H34.193z"/>
		<path fill="#1D1D1B" d="M36.589,123.924l-0.536,1.607c-0.078,0.229-0.116,0.395-0.116,0.502c0,0.1,0.046,0.178,0.139,0.236
			c0.092,0.062,0.284,0.096,0.576,0.1l-0.062,0.145h-2.914l0.053-0.145c0.292,0,0.505-0.049,0.641-0.15
			c0.135-0.098,0.259-0.318,0.372-0.664l1.125-3.406c0.063-0.189,0.094-0.342,0.094-0.449c0-0.105-0.039-0.184-0.116-0.24
			c-0.078-0.055-0.257-0.09-0.54-0.109l0.044-0.145h2.507c0.717,0,1.221,0.109,1.512,0.328c0.292,0.219,0.438,0.502,0.438,0.848
			c0,0.361-0.169,0.689-0.508,0.98c-0.214,0.184-0.594,0.342-1.138,0.475l0.544,1.609c0.146,0.432,0.273,0.691,0.382,0.779
			c0.108,0.09,0.289,0.137,0.542,0.145v0.145h-1.882l-0.857-2.59l-0.147,0.006C36.707,123.93,36.657,123.928,36.589,123.924z
			 M36.651,123.688c0.103,0.006,0.191,0.008,0.263,0.008c0.434,0,0.79-0.131,1.07-0.393c0.279-0.26,0.419-0.604,0.419-1.025
			c0-0.248-0.074-0.439-0.224-0.57c-0.148-0.131-0.345-0.195-0.589-0.195c-0.059,0-0.129,0-0.209,0.004L36.651,123.688z"/>
		<path fill="#1D1D1B" d="M41.322,121.35l0.049-0.145h2.953l-0.058,0.145c-0.268,0-0.472,0.053-0.613,0.158
			c-0.142,0.104-0.266,0.322-0.373,0.652l-1.106,3.398c-0.08,0.242-0.121,0.402-0.121,0.482c0,0.094,0.042,0.166,0.125,0.219
			c0.106,0.068,0.309,0.105,0.606,0.109l-0.045,0.145h-3.002l0.049-0.145c0.3,0,0.521-0.051,0.661-0.152
			c0.14-0.1,0.266-0.318,0.379-0.658l1.115-3.398c0.068-0.207,0.103-0.367,0.103-0.475c0-0.096-0.042-0.17-0.125-0.227
			C41.836,121.404,41.637,121.369,41.322,121.35z"/>
		<path fill="#1D1D1B" d="M50.2,121.084l-0.447,1.688H49.58c-0.021-0.459-0.149-0.801-0.386-1.029
			c-0.236-0.225-0.544-0.338-0.926-0.338c-0.411,0-0.819,0.154-1.227,0.463c-0.407,0.307-0.753,0.779-1.035,1.414
			c-0.23,0.514-0.344,1.02-0.344,1.523c0,0.447,0.125,0.789,0.377,1.027c0.25,0.236,0.595,0.354,1.032,0.354
			c0.354,0,0.676-0.068,0.968-0.203c0.291-0.137,0.586-0.357,0.884-0.664h0.214c-0.369,0.488-0.742,0.826-1.118,1.021
			c-0.376,0.197-0.836,0.297-1.381,0.297c-0.729,0-1.315-0.195-1.76-0.582c-0.445-0.389-0.667-0.895-0.667-1.518
			c0-0.584,0.177-1.143,0.531-1.674c0.354-0.531,0.863-0.959,1.528-1.287s1.326-0.492,1.982-0.492c0.25,0,0.561,0.047,0.933,0.139
			c0.189,0.049,0.322,0.072,0.397,0.072c0.148,0,0.298-0.072,0.451-0.211H50.2z"/>
		<path fill="#1D1D1B" d="M55.049,121.205h2.047l-0.04,0.145c-0.235,0.018-0.416,0.064-0.544,0.15
			c-0.205,0.133-0.358,0.352-0.459,0.656l-0.803,2.434c-0.25,0.762-0.589,1.293-1.018,1.594c-0.428,0.303-0.972,0.453-1.633,0.453
			c-0.375,0-0.705-0.049-0.99-0.143c-0.286-0.094-0.495-0.199-0.629-0.316c-0.134-0.117-0.236-0.264-0.308-0.436
			c-0.072-0.174-0.107-0.32-0.107-0.438c0-0.184,0.06-0.461,0.179-0.822l0.767-2.326c0.068-0.209,0.103-0.363,0.103-0.465
			c0-0.1-0.042-0.176-0.127-0.232c-0.084-0.055-0.282-0.09-0.59-0.109l0.049-0.145h3.016l-0.054,0.145
			c-0.291,0-0.513,0.055-0.667,0.166c-0.153,0.107-0.282,0.324-0.386,0.641l-0.772,2.326c-0.128,0.389-0.191,0.701-0.191,0.936
			c0,0.215,0.098,0.402,0.294,0.561c0.196,0.16,0.47,0.236,0.82,0.236c0.321,0,0.594-0.049,0.819-0.152s0.411-0.246,0.56-0.434
			c0.196-0.248,0.372-0.602,0.526-1.064l0.79-2.408c0.045-0.137,0.067-0.252,0.067-0.346c0-0.16-0.065-0.285-0.197-0.371
			c-0.092-0.059-0.282-0.09-0.571-0.09L55.049,121.205z"/>
		<path fill="#1D1D1B" d="M60.844,126.514h-4.832l0.049-0.145c0.289,0,0.5-0.049,0.632-0.146c0.132-0.096,0.255-0.318,0.368-0.66
			l1.125-3.41c0.063-0.188,0.094-0.336,0.094-0.441s-0.044-0.188-0.134-0.252c-0.089-0.062-0.265-0.1-0.526-0.109l0.049-0.145h2.904
			l-0.049,0.145c-0.28,0.004-0.489,0.061-0.627,0.166c-0.138,0.102-0.261,0.316-0.368,0.637l-1.026,3.119
			c-0.131,0.4-0.196,0.639-0.196,0.727c0,0.051,0.034,0.102,0.1,0.146c0.067,0.045,0.175,0.068,0.324,0.068
			c0.494,0,0.971-0.1,1.43-0.297c0.459-0.199,0.848-0.496,1.166-0.889h0.188L60.844,126.514z"/>
		<path fill="#1D1D1B" d="M63.186,121.205h4.867l-0.459,1.428h-0.161c0.006-0.076,0.009-0.141,0.009-0.199
			c0-0.271-0.09-0.48-0.272-0.631s-0.488-0.236-0.919-0.258l-1.348,3.998c-0.074,0.223-0.111,0.389-0.111,0.494
			c0,0.1,0.046,0.176,0.139,0.236c0.092,0.059,0.279,0.092,0.562,0.096l-0.04,0.145H62.45l0.054-0.145
			c0.306,0,0.529-0.051,0.669-0.152c0.14-0.1,0.267-0.324,0.383-0.674l1.347-3.998c-0.464,0.014-0.852,0.104-1.164,0.266
			c-0.313,0.166-0.598,0.441-0.857,0.822h-0.173L63.186,121.205z"/>
		<path fill="#1D1D1B" d="M72.644,121.205h2.047l-0.04,0.145c-0.236,0.018-0.417,0.064-0.544,0.15
			c-0.206,0.133-0.358,0.352-0.459,0.656l-0.803,2.434c-0.25,0.762-0.589,1.293-1.017,1.594c-0.429,0.303-0.973,0.453-1.633,0.453
			c-0.375,0-0.706-0.049-0.991-0.143c-0.286-0.094-0.496-0.199-0.629-0.316c-0.134-0.117-0.236-0.264-0.308-0.436
			c-0.072-0.174-0.107-0.32-0.107-0.438c0-0.184,0.06-0.461,0.179-0.822l0.768-2.326c0.068-0.209,0.102-0.363,0.102-0.465
			c0-0.1-0.042-0.176-0.127-0.232c-0.084-0.055-0.281-0.09-0.591-0.109l0.049-0.145h3.016l-0.054,0.145
			c-0.292,0-0.514,0.055-0.667,0.166c-0.154,0.107-0.282,0.324-0.386,0.641l-0.771,2.326c-0.128,0.389-0.192,0.701-0.192,0.936
			c0,0.215,0.098,0.402,0.295,0.561c0.196,0.16,0.47,0.236,0.82,0.236c0.321,0,0.595-0.049,0.819-0.152
			c0.225-0.104,0.412-0.246,0.56-0.434c0.196-0.248,0.372-0.602,0.526-1.064l0.79-2.408c0.045-0.137,0.067-0.252,0.067-0.346
			c0-0.16-0.065-0.285-0.197-0.371c-0.092-0.059-0.283-0.09-0.571-0.09L72.644,121.205z"/>
		<path fill="#1D1D1B" d="M76.525,123.924l-0.536,1.607c-0.077,0.229-0.115,0.395-0.115,0.502c0,0.1,0.046,0.178,0.138,0.236
			c0.092,0.062,0.285,0.096,0.576,0.1l-0.062,0.145h-2.913l0.053-0.145c0.292,0,0.505-0.049,0.641-0.15
			c0.135-0.098,0.259-0.318,0.373-0.664l1.125-3.406c0.062-0.189,0.093-0.342,0.093-0.449c0-0.105-0.039-0.184-0.116-0.24
			c-0.077-0.055-0.257-0.09-0.54-0.109l0.045-0.145h2.507c0.716,0,1.22,0.109,1.512,0.328s0.437,0.502,0.437,0.848
			c0,0.361-0.169,0.689-0.508,0.98c-0.214,0.184-0.593,0.342-1.138,0.475l0.544,1.609c0.146,0.432,0.273,0.691,0.381,0.779
			c0.109,0.09,0.29,0.137,0.542,0.145v0.145h-1.882l-0.856-2.59l-0.147,0.006C76.644,123.93,76.593,123.928,76.525,123.924z
			 M76.587,123.688c0.104,0.006,0.192,0.008,0.264,0.008c0.434,0,0.791-0.131,1.071-0.393c0.279-0.26,0.419-0.604,0.419-1.025
			c0-0.248-0.074-0.439-0.223-0.57c-0.149-0.131-0.346-0.195-0.59-0.195c-0.059,0-0.128,0-0.208,0.004L76.587,123.688z"/>
		<path fill="#1D1D1B" d="M83.698,124.805h-1.874l-0.375,0.404l-0.429,0.451c-0.083,0.098-0.144,0.184-0.182,0.262
			c-0.03,0.061-0.045,0.121-0.045,0.182c0,0.062,0.038,0.121,0.114,0.174c0.075,0.053,0.201,0.084,0.377,0.092v0.145h-1.807
			l0.045-0.145c0.161-0.023,0.303-0.072,0.428-0.15c0.167-0.104,0.406-0.318,0.719-0.645l4.287-4.49h0.201l-0.201,4.346
			c-0.009,0.227-0.013,0.363-0.013,0.41c0,0.18,0.041,0.307,0.123,0.389c0.082,0.08,0.218,0.129,0.409,0.141l-0.045,0.145h-2.619
			l0.049-0.145c0.258-0.021,0.407-0.039,0.446-0.055c0.083-0.037,0.159-0.113,0.227-0.229c0.068-0.117,0.11-0.318,0.125-0.604
			L83.698,124.805z M83.698,124.482l0.116-1.73l-1.682,1.73H83.698z"/>
		<path fill="#1D1D1B" d="M93.201,121.084l-0.504,1.801h-0.147c-0.032-0.281-0.09-0.508-0.174-0.678
			c-0.125-0.244-0.291-0.434-0.497-0.566c-0.207-0.133-0.431-0.201-0.671-0.201c-0.232,0-0.435,0.078-0.609,0.232
			c-0.173,0.158-0.261,0.332-0.261,0.527c0,0.193,0.061,0.385,0.18,0.57c0.121,0.186,0.406,0.467,0.855,0.844
			c0.36,0.301,0.602,0.559,0.725,0.773c0.124,0.219,0.186,0.453,0.186,0.707c0,0.283-0.087,0.547-0.259,0.787
			c-0.173,0.238-0.423,0.426-0.751,0.557c-0.329,0.133-0.702,0.199-1.118,0.199c-0.256,0-0.578-0.035-0.966-0.102
			s-0.646-0.098-0.774-0.098c-0.101,0-0.191,0.012-0.272,0.039c-0.081,0.029-0.18,0.082-0.299,0.16h-0.173l0.54-2.025h0.169
			c0.039,0.355,0.121,0.656,0.245,0.906c0.125,0.25,0.304,0.443,0.536,0.584c0.232,0.139,0.496,0.209,0.794,0.209
			c0.294,0,0.541-0.084,0.738-0.256c0.198-0.17,0.297-0.371,0.297-0.602c0-0.195-0.056-0.383-0.167-0.562
			c-0.112-0.182-0.365-0.445-0.763-0.789s-0.671-0.652-0.823-0.924c-0.11-0.199-0.165-0.414-0.165-0.641
			c0-0.395,0.176-0.736,0.53-1.021c0.354-0.289,0.817-0.432,1.388-0.432c0.258,0,0.599,0.051,1.022,0.152
			c0.246,0.059,0.421,0.09,0.521,0.09c0.086,0,0.164-0.016,0.232-0.049c0.068-0.031,0.149-0.098,0.241-0.193H93.201z"/>
		<path fill="#1D1D1B" d="M94.213,121.35l0.049-0.145h2.953l-0.058,0.145c-0.268,0-0.472,0.053-0.613,0.158
			c-0.142,0.104-0.266,0.322-0.373,0.652l-1.106,3.398c-0.08,0.242-0.12,0.402-0.12,0.482c0,0.094,0.042,0.166,0.125,0.219
			c0.107,0.068,0.31,0.105,0.606,0.109l-0.045,0.145H92.63l0.049-0.145c0.301,0,0.521-0.051,0.66-0.152
			c0.14-0.1,0.266-0.318,0.379-0.658l1.115-3.398c0.068-0.207,0.103-0.367,0.103-0.475c0-0.096-0.041-0.17-0.125-0.227
			C94.728,121.404,94.529,121.369,94.213,121.35z"/>
		<path fill="#1D1D1B" d="M99.764,121.205l1.891,3.539l0.853-2.57c0.044-0.139,0.066-0.264,0.066-0.373
			c0-0.131-0.046-0.234-0.141-0.314c-0.093-0.078-0.255-0.125-0.483-0.137l0.049-0.145h1.918l-0.044,0.145
			c-0.244,0.012-0.446,0.072-0.604,0.18c-0.159,0.109-0.293,0.324-0.404,0.645l-1.477,4.398h-0.169l-2.427-4.525l-1.173,3.527
			c-0.038,0.123-0.058,0.234-0.058,0.33c0,0.141,0.053,0.254,0.158,0.338c0.106,0.084,0.274,0.127,0.506,0.127l-0.04,0.145h-1.972
			l0.04-0.145c0.17,0,0.291-0.012,0.361-0.039c0.125-0.041,0.248-0.123,0.367-0.24c0.118-0.119,0.215-0.289,0.29-0.516l1.28-3.855
			c-0.158-0.154-0.29-0.254-0.397-0.299c-0.107-0.043-0.268-0.068-0.482-0.07l0.049-0.145H99.764z"/>
		<path fill="#1D1D1B" d="M109.926,126.514h-4.831l0.048-0.145c0.289,0,0.499-0.049,0.631-0.146c0.133-0.096,0.255-0.318,0.368-0.66
			l1.125-3.41c0.062-0.188,0.094-0.336,0.094-0.441s-0.044-0.188-0.134-0.252c-0.089-0.062-0.265-0.1-0.526-0.109l0.049-0.145h2.904
			l-0.048,0.145c-0.28,0.004-0.489,0.061-0.627,0.166c-0.139,0.102-0.261,0.316-0.368,0.637l-1.026,3.119
			c-0.131,0.4-0.196,0.639-0.196,0.727c0,0.051,0.033,0.102,0.101,0.146c0.067,0.045,0.174,0.068,0.323,0.068
			c0.494,0,0.971-0.1,1.43-0.297c0.459-0.199,0.849-0.496,1.167-0.889h0.187L109.926,126.514z"/>
		<path fill="#1D1D1B" d="M112.232,121.35l0.049-0.145h2.953l-0.058,0.145c-0.267,0-0.472,0.053-0.612,0.158
			c-0.142,0.104-0.266,0.322-0.373,0.652l-1.106,3.398c-0.081,0.242-0.121,0.402-0.121,0.482c0,0.094,0.042,0.166,0.125,0.219
			c0.106,0.068,0.309,0.105,0.606,0.109l-0.044,0.145h-3.003l0.049-0.145c0.301,0,0.521-0.051,0.661-0.152
			c0.141-0.1,0.266-0.318,0.379-0.658l1.116-3.398c0.068-0.207,0.102-0.367,0.102-0.475c0-0.096-0.042-0.17-0.125-0.227
			C112.747,121.404,112.548,121.369,112.232,121.35z"/>
		<path fill="#1D1D1B" d="M117.983,121.205l0.446,3.65l2.876-3.65h2.119l-0.054,0.145c-0.291,0-0.512,0.055-0.664,0.166
			c-0.15,0.107-0.281,0.326-0.388,0.648l-1.115,3.398c-0.071,0.215-0.108,0.375-0.108,0.479c0,0.098,0.045,0.172,0.134,0.232
			c0.089,0.059,0.265,0.092,0.526,0.096l-0.04,0.145h-3.021l0.054-0.145c0.324,0,0.563-0.055,0.719-0.164
			c0.154-0.105,0.285-0.32,0.392-0.643l1.138-3.441l-3.462,4.393h-0.183l-0.544-4.479l-1.154,3.527
			c-0.048,0.145-0.072,0.266-0.072,0.359c0,0.131,0.051,0.236,0.154,0.316s0.277,0.123,0.524,0.131l-0.045,0.145h-1.999l0.041-0.145
			c0.241-0.008,0.425-0.053,0.553-0.133c0.226-0.146,0.389-0.369,0.491-0.674l1.307-3.922c-0.125-0.121-0.237-0.199-0.337-0.236
			c-0.099-0.035-0.267-0.055-0.501-0.055l0.054-0.145H117.983z"/>
		<path fill="#1D1D1B" d="M123.912,121.35l0.049-0.145h2.953l-0.058,0.145c-0.269,0-0.473,0.053-0.614,0.158
			c-0.142,0.104-0.266,0.322-0.372,0.652l-1.106,3.398c-0.08,0.242-0.121,0.402-0.121,0.482c0,0.094,0.043,0.166,0.125,0.219
			c0.107,0.068,0.311,0.105,0.607,0.109l-0.044,0.145h-3.003l0.049-0.145c0.301,0,0.52-0.051,0.661-0.152
			c0.139-0.1,0.265-0.318,0.379-0.658l1.114-3.398c0.069-0.207,0.104-0.367,0.104-0.475c0-0.096-0.042-0.17-0.125-0.227
			C124.426,121.404,124.227,121.369,123.912,121.35z"/>
		<path fill="#1D1D1B" d="M127.668,121.205h4.868l-0.462,1.428h-0.158c0.005-0.076,0.009-0.141,0.009-0.199
			c0-0.271-0.091-0.48-0.273-0.631c-0.181-0.15-0.487-0.236-0.919-0.258l-1.347,3.998c-0.074,0.223-0.112,0.389-0.112,0.494
			c0,0.1,0.046,0.176,0.139,0.236c0.093,0.059,0.279,0.092,0.562,0.096l-0.04,0.145h-3.002l0.053-0.145
			c0.307,0,0.53-0.051,0.669-0.152c0.141-0.1,0.269-0.324,0.384-0.674l1.348-3.998c-0.464,0.014-0.853,0.104-1.165,0.266
			c-0.311,0.166-0.597,0.441-0.856,0.822h-0.173L127.668,121.205z"/>
		<path fill="#1D1D1B" d="M135.239,121.5l-0.674,2.059h0.205c0.541,0,0.936-0.064,1.186-0.189c0.246-0.125,0.458-0.346,0.631-0.664
			h0.165l-0.68,2.066h-0.155c0.026-0.137,0.041-0.252,0.041-0.336c0-0.145-0.049-0.262-0.146-0.354
			c-0.097-0.09-0.224-0.156-0.377-0.195c-0.103-0.025-0.312-0.037-0.629-0.037h-0.348l-0.581,1.779
			c-0.051,0.156-0.075,0.273-0.075,0.35c0,0.061,0.032,0.109,0.098,0.145c0.096,0.053,0.274,0.078,0.54,0.078
			c0.51,0,0.987-0.094,1.437-0.283c0.448-0.189,0.852-0.477,1.208-0.859h0.184l-0.63,1.455h-5.174l0.053-0.145
			c0.305,0,0.525-0.051,0.665-0.152c0.14-0.1,0.267-0.318,0.379-0.662l1.139-3.418c0.062-0.191,0.093-0.34,0.093-0.451
			c0-0.098-0.04-0.174-0.12-0.227c-0.08-0.055-0.265-0.09-0.549-0.109l0.049-0.145h4.824l-0.39,1.328h-0.16
			c-0.012-0.262-0.058-0.445-0.139-0.553c-0.125-0.168-0.29-0.289-0.497-0.367c-0.207-0.076-0.543-0.113-1.006-0.113H135.239z"/>
		<path fill="#1D1D1B" d="M143.21,121.084l-0.503,1.801h-0.148c-0.032-0.281-0.091-0.508-0.173-0.678
			c-0.125-0.244-0.291-0.434-0.498-0.566c-0.206-0.133-0.431-0.201-0.671-0.201c-0.231,0-0.435,0.078-0.609,0.232
			c-0.174,0.158-0.262,0.332-0.262,0.527c0,0.193,0.061,0.385,0.182,0.57c0.12,0.186,0.405,0.467,0.854,0.844
			c0.359,0.301,0.602,0.559,0.724,0.773c0.124,0.219,0.186,0.453,0.186,0.707c0,0.283-0.086,0.547-0.257,0.787
			c-0.173,0.238-0.425,0.426-0.753,0.557c-0.328,0.133-0.702,0.199-1.118,0.199c-0.255,0-0.577-0.035-0.966-0.102
			c-0.388-0.066-0.646-0.098-0.774-0.098c-0.101,0-0.191,0.012-0.271,0.039c-0.081,0.029-0.18,0.082-0.298,0.16h-0.175l0.539-2.025
			h0.171c0.038,0.355,0.12,0.656,0.246,0.906c0.123,0.25,0.303,0.443,0.534,0.584c0.231,0.139,0.497,0.209,0.794,0.209
			c0.294,0,0.54-0.084,0.738-0.256c0.198-0.17,0.297-0.371,0.297-0.602c0-0.195-0.057-0.383-0.167-0.562
			c-0.111-0.182-0.366-0.445-0.763-0.789c-0.398-0.344-0.672-0.652-0.824-0.924c-0.109-0.199-0.166-0.414-0.166-0.641
			c0-0.395,0.179-0.736,0.532-1.021c0.354-0.289,0.816-0.432,1.388-0.432c0.259,0,0.6,0.051,1.022,0.152
			c0.246,0.059,0.419,0.09,0.521,0.09c0.085,0,0.164-0.016,0.232-0.049c0.068-0.031,0.148-0.098,0.24-0.193H143.21z"/>
		<path fill="#1D1D1B" d="M143.572,125.338c0.205,0,0.379,0.062,0.522,0.189c0.142,0.125,0.214,0.277,0.214,0.455
			s-0.072,0.328-0.217,0.455c-0.144,0.125-0.317,0.188-0.52,0.188c-0.203,0-0.374-0.062-0.517-0.188
			c-0.143-0.127-0.215-0.277-0.215-0.455s0.072-0.33,0.215-0.455C143.198,125.4,143.369,125.338,143.572,125.338z"/>
		<path fill="#1D1D1B" d="M145.856,125.338c0.205,0,0.379,0.062,0.521,0.189c0.144,0.125,0.214,0.277,0.214,0.455
			s-0.072,0.328-0.217,0.455c-0.144,0.125-0.316,0.188-0.519,0.188s-0.375-0.062-0.519-0.188c-0.143-0.127-0.213-0.277-0.213-0.455
			s0.07-0.33,0.213-0.455C145.481,125.4,145.654,125.338,145.856,125.338z"/>
		<path fill="#1D1D1B" d="M148.141,125.338c0.205,0,0.379,0.062,0.521,0.189c0.144,0.125,0.215,0.277,0.215,0.455
			s-0.072,0.328-0.217,0.455c-0.144,0.125-0.316,0.188-0.52,0.188c-0.202,0-0.374-0.062-0.518-0.188
			c-0.143-0.127-0.214-0.277-0.214-0.455s0.071-0.33,0.214-0.455C147.767,125.4,147.938,125.338,148.141,125.338z"/>
		<path fill="#1D1D1B" d="M153.07,121.205l1.892,3.539l0.853-2.57c0.044-0.139,0.066-0.264,0.066-0.373
			c0-0.131-0.047-0.234-0.142-0.314c-0.092-0.078-0.254-0.125-0.482-0.137l0.048-0.145h1.918l-0.044,0.145
			c-0.244,0.012-0.445,0.072-0.604,0.18c-0.159,0.109-0.294,0.324-0.403,0.645l-1.478,4.398h-0.169l-2.427-4.525l-1.173,3.527
			c-0.038,0.123-0.059,0.234-0.059,0.33c0,0.141,0.052,0.254,0.159,0.338c0.104,0.084,0.272,0.127,0.506,0.127l-0.041,0.145h-1.972
			l0.04-0.145c0.17,0,0.29-0.012,0.362-0.039c0.125-0.041,0.246-0.123,0.365-0.24c0.119-0.119,0.216-0.289,0.29-0.516l1.28-3.855
			c-0.158-0.154-0.291-0.254-0.397-0.299c-0.106-0.043-0.268-0.068-0.481-0.07l0.05-0.145H153.07z"/>
		<path fill="#1D1D1B" d="M161.752,121.205h2.048l-0.041,0.145c-0.235,0.018-0.416,0.064-0.543,0.15
			c-0.206,0.133-0.359,0.352-0.46,0.656l-0.803,2.434c-0.251,0.762-0.59,1.293-1.018,1.594c-0.429,0.303-0.973,0.453-1.634,0.453
			c-0.374,0-0.704-0.049-0.99-0.143c-0.284-0.094-0.494-0.199-0.629-0.316c-0.134-0.117-0.236-0.264-0.308-0.436
			c-0.072-0.174-0.107-0.32-0.107-0.438c0-0.184,0.06-0.461,0.179-0.822l0.767-2.326c0.068-0.209,0.103-0.363,0.103-0.465
			c0-0.1-0.042-0.176-0.125-0.232c-0.085-0.055-0.282-0.09-0.593-0.109l0.05-0.145h3.016l-0.054,0.145
			c-0.292,0-0.513,0.055-0.666,0.166c-0.154,0.107-0.282,0.324-0.386,0.641l-0.772,2.326c-0.128,0.389-0.192,0.701-0.192,0.936
			c0,0.215,0.098,0.402,0.295,0.561c0.197,0.16,0.47,0.236,0.82,0.236c0.322,0,0.594-0.049,0.818-0.152s0.413-0.246,0.56-0.434
			c0.196-0.248,0.372-0.602,0.527-1.064l0.79-2.408c0.044-0.137,0.066-0.252,0.066-0.346c0-0.16-0.066-0.285-0.196-0.371
			c-0.091-0.059-0.282-0.09-0.571-0.09L161.752,121.205z"/>
		<path fill="#1D1D1B" d="M166.462,121.5l-0.673,2.059h0.205c0.542,0,0.938-0.064,1.185-0.189c0.248-0.125,0.458-0.346,0.632-0.664
			h0.165l-0.679,2.066h-0.156c0.027-0.137,0.04-0.252,0.04-0.336c0-0.145-0.048-0.262-0.145-0.354
			c-0.097-0.09-0.223-0.156-0.377-0.195c-0.102-0.025-0.312-0.037-0.629-0.037h-0.349l-0.578,1.779
			c-0.052,0.156-0.077,0.273-0.077,0.35c0,0.061,0.032,0.109,0.099,0.145c0.095,0.053,0.275,0.078,0.539,0.078
			c0.509,0,0.987-0.094,1.438-0.283c0.448-0.189,0.852-0.477,1.207-0.859h0.185l-0.629,1.455h-5.175l0.052-0.145
			c0.304,0,0.524-0.051,0.666-0.152c0.139-0.1,0.266-0.318,0.379-0.662l1.138-3.418c0.062-0.191,0.094-0.34,0.094-0.451
			c0-0.098-0.04-0.174-0.12-0.227c-0.08-0.055-0.264-0.09-0.55-0.109l0.049-0.145h4.824l-0.389,1.328h-0.161
			c-0.012-0.262-0.059-0.445-0.138-0.553c-0.126-0.168-0.29-0.289-0.497-0.367c-0.208-0.076-0.543-0.113-1.006-0.113H166.462z"/>
		<path fill="#1D1D1B" d="M174.435,121.084l-0.504,1.801h-0.146c-0.034-0.281-0.092-0.508-0.175-0.678
			c-0.125-0.244-0.29-0.434-0.497-0.566s-0.431-0.201-0.672-0.201c-0.23,0-0.435,0.078-0.609,0.232
			c-0.173,0.158-0.261,0.332-0.261,0.527c0,0.193,0.062,0.385,0.182,0.57s0.405,0.467,0.854,0.844
			c0.36,0.301,0.602,0.559,0.725,0.773c0.124,0.219,0.186,0.453,0.186,0.707c0,0.283-0.086,0.547-0.258,0.787
			c-0.174,0.238-0.424,0.426-0.753,0.557c-0.327,0.133-0.701,0.199-1.118,0.199c-0.254,0-0.576-0.035-0.965-0.102
			c-0.388-0.066-0.646-0.098-0.773-0.098c-0.102,0-0.192,0.012-0.272,0.039c-0.082,0.029-0.18,0.082-0.298,0.16h-0.176l0.541-2.025
			h0.169c0.038,0.355,0.121,0.656,0.245,0.906c0.125,0.25,0.305,0.443,0.535,0.584c0.231,0.139,0.497,0.209,0.794,0.209
			c0.294,0,0.541-0.084,0.739-0.256c0.197-0.17,0.297-0.371,0.297-0.602c0-0.195-0.057-0.383-0.168-0.562
			c-0.111-0.182-0.365-0.445-0.764-0.789c-0.396-0.344-0.671-0.652-0.822-0.924c-0.11-0.199-0.165-0.414-0.165-0.641
			c0-0.395,0.177-0.736,0.531-1.021c0.353-0.289,0.817-0.432,1.388-0.432c0.258,0,0.598,0.051,1.021,0.152
			c0.247,0.059,0.421,0.09,0.522,0.09c0.087,0,0.163-0.016,0.231-0.049c0.069-0.031,0.149-0.098,0.242-0.193H174.435z"/>
		<path fill="#1D1D1B" d="M175.648,121.205h4.866l-0.459,1.428h-0.16c0.006-0.076,0.01-0.141,0.01-0.199
			c0-0.271-0.092-0.48-0.274-0.631c-0.181-0.15-0.486-0.236-0.918-0.258l-1.347,3.998c-0.073,0.223-0.112,0.389-0.112,0.494
			c0,0.1,0.047,0.176,0.139,0.236c0.092,0.059,0.279,0.092,0.562,0.096l-0.04,0.145h-3.002l0.052-0.145
			c0.309,0,0.53-0.051,0.67-0.152c0.14-0.1,0.268-0.324,0.384-0.674l1.348-3.998c-0.464,0.014-0.853,0.104-1.164,0.266
			c-0.312,0.166-0.599,0.441-0.857,0.822h-0.174L175.648,121.205z"/>
		<path fill="#1D1D1B" d="M182.389,123.924l-0.535,1.607c-0.078,0.229-0.116,0.395-0.116,0.502c0,0.1,0.046,0.178,0.139,0.236
			c0.093,0.062,0.284,0.096,0.575,0.1l-0.062,0.145h-2.912l0.052-0.145c0.292,0,0.506-0.049,0.642-0.15
			c0.136-0.098,0.259-0.318,0.372-0.664l1.125-3.406c0.062-0.189,0.093-0.342,0.093-0.449c0-0.105-0.039-0.184-0.116-0.24
			c-0.077-0.055-0.258-0.09-0.54-0.109l0.045-0.145h2.508c0.717,0,1.221,0.109,1.513,0.328c0.29,0.219,0.437,0.502,0.437,0.848
			c0,0.361-0.17,0.689-0.509,0.98c-0.214,0.184-0.593,0.342-1.137,0.475l0.544,1.609c0.146,0.432,0.272,0.691,0.381,0.779
			c0.109,0.09,0.29,0.137,0.541,0.145v0.145h-1.882l-0.856-2.59l-0.147,0.006C182.508,123.93,182.457,123.928,182.389,123.924z
			 M182.451,123.688c0.104,0.006,0.192,0.008,0.264,0.008c0.435,0,0.79-0.131,1.07-0.393c0.279-0.26,0.421-0.604,0.421-1.025
			c0-0.248-0.075-0.439-0.224-0.57c-0.149-0.131-0.347-0.195-0.59-0.195c-0.06,0-0.128,0-0.209,0.004L182.451,123.688z"/>
		<path fill="#1D1D1B" d="M188.429,126.641c-0.487,0-0.881-0.088-1.181-0.264c-0.301-0.176-0.526-0.412-0.678-0.717
			c-0.148-0.301-0.224-0.596-0.224-0.885c0-0.58,0.188-1.164,0.566-1.752c0.378-0.59,0.887-1.059,1.528-1.414
			c0.64-0.354,1.273-0.529,1.898-0.529c0.364,0,0.713,0.08,1.042,0.242c0.328,0.162,0.584,0.389,0.767,0.678
			c0.184,0.289,0.274,0.582,0.274,0.877c0,0.66-0.24,1.324-0.719,1.988c-0.479,0.662-1.018,1.145-1.615,1.441
			C189.637,126.527,189.084,126.641,188.429,126.641z M190.191,121.4c-0.234,0-0.435,0.039-0.6,0.113
			c-0.165,0.072-0.336,0.199-0.515,0.375c-0.179,0.174-0.36,0.424-0.546,0.748c-0.183,0.326-0.356,0.768-0.519,1.324
			c-0.163,0.559-0.243,1.025-0.243,1.398c0,0.318,0.078,0.559,0.236,0.723s0.36,0.244,0.606,0.244c0.328,0,0.605-0.094,0.834-0.285
			c0.455-0.379,0.827-0.936,1.113-1.666c0.287-0.732,0.431-1.383,0.431-1.957c0-0.355-0.077-0.615-0.229-0.775
			C190.607,121.48,190.418,121.4,190.191,121.4z"/>
		<path fill="#1D1D1B" d="M198.48,121.504l-0.669,2.002c0.456-0.004,0.751-0.02,0.888-0.045c0.224-0.041,0.425-0.123,0.607-0.25
			c0.18-0.125,0.332-0.301,0.454-0.525h0.174l-0.69,2.094h-0.179c0.029-0.135,0.045-0.244,0.045-0.326
			c0-0.16-0.038-0.289-0.115-0.385c-0.074-0.098-0.173-0.164-0.292-0.197c-0.118-0.037-0.445-0.059-0.981-0.07l-0.543,1.656
			l-0.107,0.332c-0.015,0.066-0.022,0.131-0.022,0.193c0,0.092,0.02,0.162,0.06,0.215c0.041,0.053,0.105,0.094,0.195,0.123
			c0.089,0.029,0.257,0.047,0.508,0.049l-0.05,0.145h-3.02l0.049-0.145c0.292,0,0.506-0.049,0.639-0.143s0.254-0.305,0.361-0.623
			l1.079-3.252c0.113-0.342,0.172-0.561,0.179-0.656c-0.007-0.092-0.054-0.17-0.144-0.234c-0.089-0.064-0.271-0.102-0.548-0.111
			l0.045-0.145h4.942l-0.406,1.402h-0.165c-0.018-0.293-0.07-0.51-0.156-0.65c-0.086-0.145-0.228-0.254-0.425-0.336
			c-0.198-0.078-0.516-0.117-0.948-0.117H198.48z"/>
		<path fill="#1D1D1B" d="M206.177,121.205h2.047l-0.04,0.145c-0.235,0.018-0.417,0.064-0.545,0.15
			c-0.204,0.133-0.358,0.352-0.459,0.656l-0.802,2.434c-0.251,0.762-0.59,1.293-1.018,1.594c-0.43,0.303-0.972,0.453-1.634,0.453
			c-0.374,0-0.704-0.049-0.99-0.143c-0.285-0.094-0.494-0.199-0.629-0.316c-0.134-0.117-0.237-0.264-0.309-0.436
			c-0.07-0.174-0.106-0.32-0.106-0.438c0-0.184,0.06-0.461,0.178-0.822l0.768-2.326c0.068-0.209,0.103-0.363,0.103-0.465
			c0-0.1-0.042-0.176-0.127-0.232c-0.084-0.055-0.28-0.09-0.591-0.109l0.05-0.145h3.016l-0.054,0.145
			c-0.292,0-0.513,0.055-0.666,0.166c-0.155,0.107-0.283,0.324-0.387,0.641l-0.771,2.326c-0.128,0.389-0.191,0.701-0.191,0.936
			c0,0.215,0.098,0.402,0.294,0.561c0.197,0.16,0.47,0.236,0.82,0.236c0.322,0,0.594-0.049,0.818-0.152
			c0.226-0.104,0.412-0.246,0.561-0.434c0.195-0.248,0.371-0.602,0.525-1.064l0.791-2.408c0.044-0.137,0.066-0.252,0.066-0.346
			c0-0.16-0.065-0.285-0.196-0.371c-0.092-0.059-0.282-0.09-0.571-0.09L206.177,121.205z"/>
		<path fill="#1D1D1B" d="M208.897,121.205h4.867l-0.459,1.428h-0.161c0.007-0.076,0.01-0.141,0.01-0.199
			c0-0.271-0.091-0.48-0.273-0.631c-0.181-0.15-0.487-0.236-0.918-0.258l-1.348,3.998c-0.074,0.223-0.112,0.389-0.112,0.494
			c0,0.1,0.046,0.176,0.139,0.236c0.092,0.059,0.279,0.092,0.562,0.096l-0.039,0.145h-3.004l0.054-0.145
			c0.308,0,0.529-0.051,0.669-0.152c0.141-0.1,0.269-0.324,0.384-0.674l1.348-3.998c-0.464,0.014-0.853,0.104-1.164,0.266
			c-0.312,0.166-0.598,0.441-0.857,0.822h-0.173L208.897,121.205z"/>
		<path fill="#1D1D1B" d="M218.355,121.205h2.048l-0.04,0.145c-0.235,0.018-0.417,0.064-0.546,0.15
			c-0.204,0.133-0.357,0.352-0.458,0.656l-0.803,2.434c-0.25,0.762-0.59,1.293-1.018,1.594c-0.429,0.303-0.973,0.453-1.634,0.453
			c-0.373,0-0.704-0.049-0.989-0.143c-0.286-0.094-0.496-0.199-0.63-0.316s-0.236-0.264-0.308-0.436
			c-0.071-0.174-0.106-0.32-0.106-0.438c0-0.184,0.059-0.461,0.178-0.822l0.768-2.326c0.068-0.209,0.103-0.363,0.103-0.465
			c0-0.1-0.043-0.176-0.127-0.232c-0.085-0.055-0.281-0.09-0.591-0.109l0.048-0.145h3.018l-0.055,0.145
			c-0.292,0-0.514,0.055-0.666,0.166c-0.154,0.107-0.283,0.324-0.386,0.641l-0.772,2.326c-0.128,0.389-0.192,0.701-0.192,0.936
			c0,0.215,0.098,0.402,0.295,0.561c0.196,0.16,0.47,0.236,0.82,0.236c0.321,0,0.595-0.049,0.819-0.152
			c0.226-0.104,0.411-0.246,0.559-0.434c0.197-0.248,0.372-0.602,0.527-1.064l0.789-2.408c0.046-0.137,0.067-0.252,0.067-0.346
			c0-0.16-0.065-0.285-0.196-0.371c-0.093-0.059-0.281-0.09-0.57-0.09L218.355,121.205z"/>
		<path fill="#1D1D1B" d="M222.236,123.924l-0.535,1.607c-0.078,0.229-0.115,0.395-0.115,0.502c0,0.1,0.047,0.178,0.136,0.236
			c0.094,0.062,0.286,0.096,0.577,0.1l-0.062,0.145h-2.913l0.055-0.145c0.29,0,0.504-0.049,0.639-0.15
			c0.136-0.098,0.26-0.318,0.373-0.664l1.124-3.406c0.062-0.189,0.095-0.342,0.095-0.449c0-0.105-0.039-0.184-0.117-0.24
			c-0.076-0.055-0.258-0.09-0.539-0.109l0.044-0.145h2.508c0.717,0,1.221,0.109,1.511,0.328c0.292,0.219,0.439,0.502,0.439,0.848
			c0,0.361-0.17,0.689-0.51,0.98c-0.215,0.184-0.593,0.342-1.138,0.475l0.545,1.609c0.146,0.432,0.272,0.691,0.381,0.779
			c0.107,0.09,0.289,0.137,0.542,0.145v0.145h-1.882l-0.857-2.59l-0.146,0.006C222.355,123.93,222.305,123.928,222.236,123.924z
			 M222.299,123.688c0.104,0.006,0.192,0.008,0.264,0.008c0.434,0,0.792-0.131,1.07-0.393c0.28-0.26,0.419-0.604,0.419-1.025
			c0-0.248-0.073-0.439-0.224-0.57c-0.147-0.131-0.343-0.195-0.587-0.195c-0.061,0-0.131,0-0.21,0.004L222.299,123.688z"/>
		<path fill="#1D1D1B" d="M228.277,126.641c-0.488,0-0.883-0.088-1.183-0.264c-0.301-0.176-0.525-0.412-0.675-0.717
			c-0.151-0.301-0.226-0.596-0.226-0.885c0-0.58,0.188-1.164,0.565-1.752c0.378-0.59,0.888-1.059,1.528-1.414
			c0.641-0.354,1.273-0.529,1.898-0.529c0.365,0,0.712,0.08,1.042,0.242c0.328,0.162,0.583,0.389,0.767,0.678
			c0.183,0.289,0.274,0.582,0.274,0.877c0,0.66-0.239,1.324-0.718,1.988c-0.48,0.662-1.017,1.145-1.616,1.441
			C229.485,126.527,228.932,126.641,228.277,126.641z M230.039,121.4c-0.235,0-0.435,0.039-0.601,0.113
			c-0.165,0.072-0.336,0.199-0.516,0.375c-0.179,0.174-0.359,0.424-0.543,0.748c-0.185,0.326-0.357,0.768-0.521,1.324
			c-0.162,0.559-0.243,1.025-0.243,1.398c0,0.318,0.079,0.559,0.237,0.723c0.156,0.164,0.36,0.244,0.605,0.244
			c0.327,0,0.605-0.094,0.835-0.285c0.454-0.379,0.826-0.936,1.114-1.666c0.285-0.732,0.429-1.383,0.429-1.957
			c0-0.355-0.076-0.615-0.229-0.775C230.454,121.48,230.266,121.4,230.039,121.4z"/>
	</g>
	<g>
		
			<ellipse transform="matrix(0.8357 -0.5493 0.5493 0.8357 -17.5253 41.1939)" fill="#22315F" cx="60.074" cy="49.883" rx="54.336" ry="39.535"/>
		
			<ellipse transform="matrix(0.8357 -0.5492 0.5492 0.8357 -17.5272 41.1912)" fill="#FFFFFF" cx="60.07" cy="49.885" rx="49.983" ry="35.582"/>
		<path fill="#008D36" d="M77.9,14.573c-12.668-3.597-30.461,1.449-26.929-0.086c6.366-2.769,12.823-4.398,18.972-4.903
			C72.831,11.466,74.795,11.793,77.9,14.573z"/>
		<path fill="#008D36" d="M101.838,22.432c0.194,0.294,0.71,0.577,0.562,0.894c-3.24,6.946-5.857,7.602-15.833,15.451
			c7.436-11.635,2.799-17.607-2.722-21.511c-3.001-3.837-3.819-4.164-9.051-7.845C86.31,9.605,96.282,13.978,101.838,22.432z"/>
		<path fill="#008D36" d="M84.115,43.029c8.663-4.552,14.882-9.158,19.521-17.383c3.653,7.791,3.291,17.157-0.415,26.365
			c-16.039,8.354-32.708,9.824-41.837,10.806C73.742,54.694,76.102,52.841,84.115,43.029z"/>
		<path fill="#008D36" d="M57.131,65.433c29.927-1.635,42.029-9.485,44.099-9.102c-4.49,8.639-11.887,16.891-21.618,23.288
			c-7.869,5.172-16.248,8.463-24.303,9.898c-0.403,4.125,1.919,6.66,2.277,8.787c-7.324,2.615-7.815,3.76-17.791,5.559
			c4.415-3.105,7.696-9.49,6.705-16.354C43.721,80.969,43.721,72.139,57.131,65.433z"/>
		<path fill="#22315F" d="M43.394,70.828c0,0-22.786-2.691-16.026-23.057c3.134-9.443,8.177-17.99,27.311-28.946
			c0,0,32.543-5.887,31.071,10.629c0,0-28.619-0.981-50.696,10.957c0,0-18.152,25.676,11.284,26.819
			C46.338,67.23,44.211,69.686,43.394,70.828z"/>
		<path fill="#22315F" d="M61.383,42.866c0,0-21.389,2.462-31.463,15.703c0,0,0.595,3.378,3.374,5.017
			C33.293,63.585,43.892,47.973,61.383,42.866z"/>
	</g>
	<g>
		<path fill="#008D36" d="M101.442,103.713c-0.785-0.611-1.9-0.914-3.348-0.914h-2.699c-0.609,0-1.052-0.086-1.331-0.258
			c-0.278-0.17-0.418-0.438-0.418-0.799c0-0.354,0.082-0.625,0.244-0.814c0.078-0.086,0.176-0.164,0.296-0.236
			c0.12-0.07,0.295-0.129,0.527-0.172c0.231-0.041,0.458-0.059,0.681-0.049l0.745,0.027c1.543,0,2.794-0.414,3.753-1.25
			c0.959-0.832,1.439-1.92,1.439-3.264c0-1.295-0.454-2.348-1.362-3.158l-0.039-0.027l1.812,0.17l0.643,0.059
			c-0.035-0.305-0.051-0.57-0.051-0.801c0-0.219,0.017-0.477,0.051-0.771c-0.128,0.047-0.39,0.092-0.785,0.137
			c-0.394,0.041-0.818,0.074-1.272,0.092l-1.542,0.057c-0.18,0.01-0.433,0.006-0.758-0.014c-0.326-0.018-0.635-0.047-0.926-0.084
			c-0.223-0.031-0.459-0.039-0.707-0.031c-1.542,0-2.791,0.42-3.747,1.258c-0.955,0.838-1.433,1.936-1.433,3.285
			c0,1.297,0.454,2.344,1.363,3.145c0.377,0.342,0.814,0.609,1.311,0.801c-0.599,0.227-1.068,0.559-1.407,0.992
			c-0.338,0.434-0.507,0.916-0.507,1.449c0,0.773,0.343,1.324,1.028,1.658c0.282,0.143,0.642,0.254,1.079,0.328
			c-0.59,0.191-1.13,0.459-1.619,0.801c-1.062,0.752-1.594,1.672-1.594,2.756c0,1.049,0.495,1.932,1.485,2.652
			c0.99,0.717,2.204,1.078,3.644,1.078c1.851,0,3.417-0.531,4.697-1.594s1.922-2.365,1.922-3.908
			C102.619,105.188,102.227,104.322,101.442,103.713z M93.609,96.213c0-1.068,0.242-1.922,0.726-2.564
			c0.484-0.643,1.129-0.965,1.935-0.965c0.805,0,1.452,0.295,1.94,0.887c0.489,0.6,0.733,1.383,0.733,2.357
			c0,1.057-0.242,1.906-0.726,2.543c-0.484,0.637-1.134,0.955-1.947,0.955c-0.849,0-1.504-0.277-1.967-0.834
			C93.84,98.033,93.609,97.242,93.609,96.213z M99.489,109.756c-0.828,0.658-1.836,0.986-3.027,0.986
			c-1.208,0-2.14-0.262-2.795-0.785c-0.655-0.525-0.983-1.266-0.983-2.23c0-0.922,0.33-1.656,0.99-2.199
			c0.66-0.541,1.551-0.812,2.673-0.812h0.116c1.397,0,2.457,0.223,3.181,0.67c0.725,0.447,1.086,1.1,1.086,1.957
			C100.729,108.295,100.315,109.098,99.489,109.756z"/>
		<path fill="#008D36" d="M109.751,91.865c-1.081,0.203-2.178,0.709-3.292,1.521v-1.533l-0.121-0.092
			c-0.946,0.26-1.931,0.504-2.958,0.73c-0.287,0.062,0.781,0.732,0.781,0.732c0.032,0.701,0.059,2.133,0.059,3.555v4.465
			c0,0.701-0.004,1.236-0.012,1.611c-0.008,0.201-0.108,0.338-0.3,0.406l-1.396,0.447l0.048,0.535
			c1.074-0.025,2.007-0.039,2.798-0.039c0.79,0,1.811,0.014,3.062,0.039l-0.036-0.535l-1.601-0.5
			c-0.192-0.061-0.293-0.209-0.301-0.443c-0.016-0.586-0.024-1.561-0.024-2.922v-5.672c0.65-0.436,1.191-0.656,1.625-0.656
			c0.449,0,0.778,0.227,0.987,0.676c0.076,0.166,0.154,0.352,0.233,0.557c0.486,0.123,0.706,0.01,1.038-0.021
			c0,0,0-0.857-0.072-2.936C110.099,91.807,109.926,91.832,109.751,91.865z"/>
		<path fill="#008D36" d="M188.001,91.506c-1.798,0-3.234,0.613-4.309,1.848c-1.074,1.229-1.611,2.814-1.611,4.752
			c0,1.949,0.576,3.471,1.728,4.566c1.151,1.098,2.662,1.645,4.532,1.645c0.654,0,1.363-0.102,2.128-0.303
			c0.766-0.201,1.509-0.533,2.23-0.996l-0.076-0.562c-0.926,0.158-1.796,0.238-2.612,0.238c-1.826,0-3.171-0.406-4.028-1.213
			c-0.858-0.809-1.288-2.15-1.288-4.027h8.044c0.025-0.254,0.038-0.504,0.038-0.748c0-1.625-0.418-2.896-1.259-3.818
			C190.68,91.965,189.506,91.506,188.001,91.506z M190.163,96.365h-5.419c0.068-1.064,0.363-1.975,0.887-2.725
			c0.524-0.75,1.283-1.125,2.272-1.125c0.749,0,1.312,0.266,1.69,0.797c0.381,0.533,0.569,1.422,0.569,2.66V96.365z"/>
		<path fill="#008D36" d="M181.416,103.031c-0.233-0.051-0.41-0.148-0.528-0.295c-0.12-0.143-0.194-0.35-0.224-0.621
			s-0.044-0.629-0.044-1.074c-0.01-1.178-0.014-2.371-0.014-3.576V90.34c0-2.148,0.026-4.156,0.077-6.025l-0.115-0.105
			c-1.264,0.324-2.652,0.635-4.169,0.932l0.064,0.434l1.722,0.521c0.034,1.824,0.05,3.703,0.05,5.633
			c-0.672-0.123-1.279-0.184-1.822-0.184c-2.244,0-3.99,0.594-5.239,1.781s-1.875,2.863-1.875,5.029c0,1.678,0.472,3.09,1.412,4.238
			c0.938,1.146,2.196,1.723,3.771,1.723c1.241,0,2.522-0.504,3.841-1.508c0.298,0.996,0.877,1.492,1.735,1.492
			c0.188,0,0.543-0.074,1.065-0.223c0.521-0.146,0.971-0.295,1.345-0.443l-0.064-0.512
			C181.979,103.115,181.65,103.084,181.416,103.031z M178.235,102.062c-0.856,0.453-1.68,0.68-2.468,0.68
			c-1.228,0-2.175-0.445-2.847-1.342c-0.671-0.895-1.007-2.09-1.007-3.582c0-1.73,0.378-3.018,1.132-3.869
			c0.756-0.854,1.856-1.277,3.301-1.277c0.698,0,1.326,0.09,1.889,0.275V102.062z"/>
		<path fill="#008D36" d="M116.633,91.803c-1.872,0-3.376,0.607-4.511,1.826c-1.136,1.217-1.704,2.787-1.704,4.709
			c0,1.867,0.543,3.381,1.627,4.537s2.507,1.736,4.269,1.736c1.804,0,3.29-0.613,4.459-1.84c1.17-1.229,1.756-2.836,1.756-4.828
			c0-1.852-0.542-3.336-1.622-4.459C119.827,92.361,118.402,91.803,116.633,91.803z M119.058,102.234
			c-0.571,0.902-1.403,1.355-2.496,1.355c-1.168,0-2.049-0.514-2.642-1.539c-0.592-1.025-0.888-2.355-0.888-3.988
			c0-1.756,0.29-3.066,0.87-3.932c0.58-0.861,1.411-1.295,2.495-1.295c1.144,0,2.016,0.48,2.617,1.441
			c0.601,0.961,0.902,2.273,0.902,3.941C119.915,99.992,119.629,101.33,119.058,102.234z"/>
		<path fill="#008D36" d="M156.478,102.842c-0.118-0.172-0.184-0.619-0.326-1.104l-4.292-12.881h-3.312l0.648,3.148l-3.399,9.895
			c-0.128,0.371-0.243,0.646-0.347,0.822c-0.104,0.178-0.266,0.307-0.485,0.393l-0.875,0.326l0.043,0.455
			c0.643-0.021,1.222-0.033,1.743-0.033c0.519,0,1.188,0.012,2.009,0.033l-0.017-0.477l-0.806-0.285
			c-0.11-0.043-0.193-0.094-0.247-0.152c-0.055-0.061-0.083-0.148-0.083-0.27c0-0.135,0.034-0.316,0.104-0.549
			c0.068-0.232,0.164-0.545,0.286-0.939l0.909-2.82h4.176l0.815,2.83c0.109,0.381,0.193,0.686,0.254,0.912
			c0.062,0.23,0.092,0.416,0.092,0.557c0,0.127-0.024,0.219-0.074,0.279c-0.049,0.059-0.131,0.113-0.246,0.162l-0.823,0.297
			l0.034,0.455c0.896-0.021,1.673-0.033,2.331-0.033c0.646,0,2.275,0.012,3.031,0.033v-0.441l-0.621-0.109
			C156.78,103.262,156.597,103.014,156.478,102.842z M148.354,97.443l1.878-5.818l1.69,5.818H148.354z"/>
		<path fill="#008D36" d="M89.411,102.842c-0.119-0.172-0.183-0.619-0.328-1.104l-4.292-12.881H81.48l0.649,3.148l-3.4,9.895
			c-0.128,0.371-0.243,0.646-0.347,0.822c-0.104,0.178-0.266,0.307-0.485,0.393l-0.876,0.326l0.044,0.455
			c0.641-0.021,1.221-0.033,1.742-0.033c0.52,0,1.189,0.012,2.01,0.033l-0.017-0.477l-0.806-0.285
			c-0.109-0.043-0.192-0.094-0.247-0.152c-0.055-0.061-0.083-0.148-0.083-0.27c0-0.135,0.035-0.316,0.104-0.549
			c0.07-0.232,0.165-0.545,0.286-0.939l0.909-2.82h4.177l0.815,2.83c0.109,0.381,0.194,0.686,0.254,0.912
			c0.061,0.23,0.091,0.416,0.091,0.557c0,0.127-0.024,0.219-0.074,0.279c-0.049,0.059-0.131,0.113-0.247,0.162l-0.823,0.297
			l0.035,0.455c0.895-0.021,1.672-0.033,2.331-0.033c0.646,0,2.275,0.012,3.032,0.033v-0.441l-0.623-0.109
			C89.713,103.262,89.529,103.014,89.411,102.842z M81.286,97.443l1.88-5.818l1.689,5.818H81.286z"/>
		<path fill="#008D36" d="M138.931,97.518c-0.305-0.316-3.33-2.854-3.6-3.115c-0.269-0.258-0.592-0.572-0.827-0.871
			c-0.459-0.582-0.736-1.656,0.077-2.805c0.37-0.521,1.062-0.676,1.823-0.676c0.509,0,1.065,0.125,1.674,0.369l0.447,0.471
			l0.455,1.199l0.517-2.406l-0.061-0.076c-0.999-0.262-1.955-0.393-2.868-0.393c-1.293,0-2.378,0.352-3.252,1.047
			c-0.875,0.697-1.313,1.684-1.313,2.957c0,0.635,0.092,1.189,0.277,1.664c0.185,0.477,0.432,0.877,0.742,1.203
			c0.308,0.328,0.653,0.615,1.034,0.861s2.545,2.195,2.808,2.439c0.263,0.246,1.687,1.475,0.445,3.57
			c-0.34,0.576-1.153,0.697-2.015,0.697c-0.641,0-2.109-0.158-2.723-0.77l-1.196-2.607v3.312l0.619,0.285l0.052,0.086
			c1.114,0.379,2.131,0.568,3.049,0.568c1.427,0,2.59-0.369,3.487-1.109c0.898-0.738,1.347-1.809,1.347-3.209
			c0-0.592-0.089-1.109-0.271-1.553C139.477,98.215,139.233,97.836,138.931,97.518z"/>
		<path fill="#008D36" d="M227.251,90.225c0.104-0.164,0.257-0.283,0.458-0.354l0.877-0.338l-0.034-0.455
			c-0.59,0.029-1.205,0.043-1.848,0.043c-0.641,0-1.276-0.014-1.905-0.043l0.017,0.488l0.807,0.264
			c0.108,0.033,0.191,0.082,0.247,0.143c0.055,0.059,0.081,0.152,0.081,0.279c0,0.141-0.034,0.33-0.104,0.564
			c-0.069,0.236-0.164,0.547-0.285,0.934l-3.041,9.494l-2.8-9.504c-0.107-0.373-0.194-0.678-0.254-0.912
			c-0.062-0.236-0.092-0.426-0.092-0.566c0-0.127,0.026-0.223,0.079-0.289c0.051-0.068,0.135-0.119,0.251-0.152l0.815-0.287
			l-0.037-0.455c-0.831,0.029-1.638,0.043-2.417,0.043c-0.768,0-1.438-0.014-2.01-0.043l0.018,0.455l0.788,0.297
			c0.236,0.084,0.415,0.219,0.533,0.406c0.118,0.186,0.246,0.512,0.385,0.977l3.865,12.734l0.866-0.084l4.322-12.65
			C227.009,90.721,227.147,90.391,227.251,90.225z"/>
		<path fill="#008D36" d="M209.328,102.977c-1.764,0-3.144-0.611-4.142-1.838c-0.995-1.223-1.495-2.865-1.495-4.922
			c0-1.92,0.438-3.482,1.31-4.688c0.871-1.203,2.072-1.807,3.598-1.807c0.63,0,1.331,0.111,2.103,0.328l0.684,2.777l0.374-0.062
			l0.58-3.41l-0.065-0.086c-1.103-0.289-2.182-0.434-3.235-0.434c-2.193,0-3.975,0.703-5.341,2.111
			c-1.368,1.408-2.053,3.32-2.053,5.734c0,2.268,0.623,4.096,1.865,5.482s2.872,2.08,4.884,2.08c1.552,0,2.942-0.479,4.169-1.436
			l-0.103-0.477C211.364,102.764,210.32,102.977,209.328,102.977z"/>
		<ellipse fill="#008D36" cx="142.373" cy="102.808" rx="1.349" ry="1.437"/>
		<path fill="#008D36" d="M214.706,101.371c-0.744,0-1.348,0.643-1.348,1.436c0,0.795,0.604,1.438,1.348,1.438
			c0.747,0,1.351-0.643,1.351-1.438C216.057,102.014,215.453,101.371,214.706,101.371z"/>
		<ellipse fill="#008D36" cx="227.236" cy="102.808" rx="1.351" ry="1.437"/>
		<ellipse fill="#008D36" cx="159.463" cy="102.46" rx="1.35" ry="1.437"/>
	</g>
</g>
</svg>
